<mxfile host="app.diagrams.net" modified="2023-04-03T09:23:17.927Z" agent="Mozilla/5.0 (Windows NT 10.0; Win64; x64) AppleWebKit/537.36 (KHTML, like Gecko) Chrome/111.0.0.0 Safari/537.36 Edg/111.0.1661.62" etag="sW2bPgh9VTfwPwfRe0M-" version="21.1.2" type="github">
  <diagram name="Birds Eye View" id="2dJY-aPmXwigr7amAttw">
    <mxGraphModel dx="1095" dy="668" grid="1" gridSize="10" guides="1" tooltips="1" connect="1" arrows="1" fold="1" page="1" pageScale="1" pageWidth="1100" pageHeight="850" math="0" shadow="0">
      <root>
        <mxCell id="0" />
        <mxCell id="1" parent="0" />
        <mxCell id="melnFsx0FvC3lrg1FxyG-5" value="" style="endArrow=none;dashed=1;html=1;dashPattern=1 3;strokeWidth=2;rounded=0;" edge="1" parent="1">
          <mxGeometry width="50" height="50" relative="1" as="geometry">
            <mxPoint x="280" y="610" as="sourcePoint" />
            <mxPoint x="280" y="160" as="targetPoint" />
          </mxGeometry>
        </mxCell>
        <mxCell id="melnFsx0FvC3lrg1FxyG-6" value="" style="endArrow=none;dashed=1;html=1;dashPattern=1 3;strokeWidth=2;rounded=0;" edge="1" parent="1">
          <mxGeometry width="50" height="50" relative="1" as="geometry">
            <mxPoint x="560" y="830" as="sourcePoint" />
            <mxPoint x="560" y="20" as="targetPoint" />
          </mxGeometry>
        </mxCell>
        <mxCell id="melnFsx0FvC3lrg1FxyG-12" value="" style="edgeStyle=orthogonalEdgeStyle;rounded=0;orthogonalLoop=1;jettySize=auto;html=1;" edge="1" parent="1" source="melnFsx0FvC3lrg1FxyG-13" target="melnFsx0FvC3lrg1FxyG-8">
          <mxGeometry relative="1" as="geometry" />
        </mxCell>
        <mxCell id="melnFsx0FvC3lrg1FxyG-7" value="" style="shape=image;html=1;verticalAlign=top;verticalLabelPosition=bottom;labelBackgroundColor=#ffffff;imageAspect=0;aspect=fixed;image=https://cdn2.iconfinder.com/data/icons/seo-flat-6/128/22_Page_Quality-128.png" vertex="1" parent="1">
          <mxGeometry x="646" y="150" width="90" height="90" as="geometry" />
        </mxCell>
        <mxCell id="melnFsx0FvC3lrg1FxyG-8" value="" style="shape=image;html=1;verticalAlign=top;verticalLabelPosition=bottom;labelBackgroundColor=#ffffff;imageAspect=0;aspect=fixed;image=https://cdn2.iconfinder.com/data/icons/seo-flat-6/128/03_Landing_Page_Optimization-128.png" vertex="1" parent="1">
          <mxGeometry x="650" y="645" width="80" height="80" as="geometry" />
        </mxCell>
        <mxCell id="melnFsx0FvC3lrg1FxyG-9" value="B2B Website" style="text;html=1;align=center;verticalAlign=middle;resizable=0;points=[];autosize=1;strokeColor=none;fillColor=#f5f5f5;fontStyle=1;fontSize=15;rounded=1;glass=1;fontColor=#333333;shadow=0;" vertex="1" parent="1">
          <mxGeometry x="631" y="120" width="110" height="30" as="geometry" />
        </mxCell>
        <mxCell id="melnFsx0FvC3lrg1FxyG-13" value="B2C Website" style="text;html=1;align=center;verticalAlign=middle;resizable=0;points=[];autosize=1;strokeColor=none;fillColor=#f5f5f5;fontStyle=1;fontSize=15;rounded=1;glass=1;fontColor=#333333;shadow=0;" vertex="1" parent="1">
          <mxGeometry x="635" y="625" width="110" height="30" as="geometry" />
        </mxCell>
        <mxCell id="melnFsx0FvC3lrg1FxyG-15" value="" style="image;aspect=fixed;html=1;points=[];align=center;fontSize=12;image=img/lib/azure2/other/Dashboard_Hub.svg;" vertex="1" parent="1">
          <mxGeometry x="657" y="280" width="68" height="52" as="geometry" />
        </mxCell>
        <mxCell id="melnFsx0FvC3lrg1FxyG-16" value="B2B Dashboard" style="text;html=1;align=center;verticalAlign=middle;resizable=0;points=[];autosize=1;strokeColor=none;fillColor=#f5f5f5;fontStyle=1;fontSize=15;rounded=1;glass=1;fontColor=#333333;shadow=0;" vertex="1" parent="1">
          <mxGeometry x="620" y="250" width="140" height="30" as="geometry" />
        </mxCell>
        <mxCell id="melnFsx0FvC3lrg1FxyG-17" value="" style="endArrow=none;dashed=1;html=1;dashPattern=1 3;strokeWidth=2;rounded=0;" edge="1" parent="1">
          <mxGeometry width="50" height="50" relative="1" as="geometry">
            <mxPoint x="560" y="350" as="sourcePoint" />
            <mxPoint x="800" y="350" as="targetPoint" />
          </mxGeometry>
        </mxCell>
        <mxCell id="melnFsx0FvC3lrg1FxyG-18" value="" style="shape=image;html=1;verticalAlign=top;verticalLabelPosition=bottom;labelBackgroundColor=#ffffff;imageAspect=0;aspect=fixed;image=https://cdn4.iconfinder.com/data/icons/computer-and-web-2/500/Dashboard-128.png" vertex="1" parent="1">
          <mxGeometry x="650" y="745" width="80" height="80" as="geometry" />
        </mxCell>
        <mxCell id="melnFsx0FvC3lrg1FxyG-19" value="B2C Community&lt;br&gt;" style="text;html=1;align=center;verticalAlign=middle;resizable=0;points=[];autosize=1;strokeColor=none;fillColor=#f5f5f5;fontStyle=1;fontSize=15;rounded=1;glass=1;fontColor=#333333;shadow=0;" vertex="1" parent="1">
          <mxGeometry x="620" y="725" width="140" height="30" as="geometry" />
        </mxCell>
        <mxCell id="melnFsx0FvC3lrg1FxyG-20" value="&lt;b&gt;&lt;font style=&quot;font-size: 22px;&quot;&gt;B2C&lt;/font&gt;&lt;/b&gt;" style="text;html=1;align=center;verticalAlign=middle;resizable=0;points=[];autosize=1;strokeColor=none;fillColor=none;" vertex="1" parent="1">
          <mxGeometry x="659" y="570" width="70" height="40" as="geometry" />
        </mxCell>
        <mxCell id="melnFsx0FvC3lrg1FxyG-21" value="&lt;b&gt;&lt;font style=&quot;font-size: 22px;&quot;&gt;B2B&lt;/font&gt;&lt;/b&gt;" style="text;html=1;align=center;verticalAlign=middle;resizable=0;points=[];autosize=1;strokeColor=none;fillColor=none;" vertex="1" parent="1">
          <mxGeometry x="651" y="70" width="70" height="40" as="geometry" />
        </mxCell>
        <mxCell id="melnFsx0FvC3lrg1FxyG-22" value="" style="endArrow=none;dashed=1;html=1;dashPattern=1 3;strokeWidth=2;rounded=0;" edge="1" parent="1">
          <mxGeometry width="50" height="50" relative="1" as="geometry">
            <mxPoint x="560" y="568.33" as="sourcePoint" />
            <mxPoint x="800" y="568.33" as="targetPoint" />
            <Array as="points">
              <mxPoint x="670" y="568.33" />
            </Array>
          </mxGeometry>
        </mxCell>
        <mxCell id="melnFsx0FvC3lrg1FxyG-23" value="&lt;b&gt;&lt;font style=&quot;font-size: 21px;&quot;&gt;Social Media&lt;/font&gt;&lt;/b&gt;" style="text;html=1;align=center;verticalAlign=middle;resizable=0;points=[];autosize=1;strokeColor=none;fillColor=none;" vertex="1" parent="1">
          <mxGeometry x="605" y="360" width="150" height="40" as="geometry" />
        </mxCell>
        <mxCell id="melnFsx0FvC3lrg1FxyG-25" value="" style="shape=image;html=1;verticalAlign=top;verticalLabelPosition=bottom;labelBackgroundColor=#ffffff;imageAspect=0;aspect=fixed;image=https://cdn3.iconfinder.com/data/icons/2018-social-media-logotypes/1000/2018_social_media_popular_app_logo_instagram-128.png" vertex="1" parent="1">
          <mxGeometry x="657" y="400" width="50" height="50" as="geometry" />
        </mxCell>
        <mxCell id="melnFsx0FvC3lrg1FxyG-26" value="" style="shape=image;html=1;verticalAlign=top;verticalLabelPosition=bottom;labelBackgroundColor=#ffffff;imageAspect=0;aspect=fixed;image=https://cdn2.iconfinder.com/data/icons/social-media-2285/512/1_Facebook_colored_svg_copy-128.png" vertex="1" parent="1">
          <mxGeometry x="590" y="470" width="50" height="50" as="geometry" />
        </mxCell>
        <mxCell id="melnFsx0FvC3lrg1FxyG-28" value="" style="shape=image;html=1;verticalAlign=top;verticalLabelPosition=bottom;labelBackgroundColor=#ffffff;imageAspect=0;aspect=fixed;image=https://cdn3.iconfinder.com/data/icons/2018-social-media-logotypes/1000/2018_social_media_popular_app_logo_snapchat-128.png" vertex="1" parent="1">
          <mxGeometry x="662.5" y="470" width="47" height="47" as="geometry" />
        </mxCell>
        <mxCell id="melnFsx0FvC3lrg1FxyG-29" value="" style="shape=image;html=1;verticalAlign=top;verticalLabelPosition=bottom;labelBackgroundColor=#ffffff;imageAspect=0;aspect=fixed;image=https://cdn3.iconfinder.com/data/icons/2018-social-media-logotypes/1000/2018_social_media_popular_app_logo_linkedin-128.png" vertex="1" parent="1">
          <mxGeometry x="590" y="400" width="50" height="50" as="geometry" />
        </mxCell>
        <mxCell id="melnFsx0FvC3lrg1FxyG-30" value="" style="shape=image;html=1;verticalAlign=top;verticalLabelPosition=bottom;labelBackgroundColor=#ffffff;imageAspect=0;aspect=fixed;image=https://cdn3.iconfinder.com/data/icons/2018-social-media-logotypes/1000/2018_social_media_popular_app_logo_twitter-128.png" vertex="1" parent="1">
          <mxGeometry x="721" y="395" width="55" height="55" as="geometry" />
        </mxCell>
      </root>
    </mxGraphModel>
  </diagram>
</mxfile>
